<svg width="33" height="40" viewBox="0 0 33 40" fill="none" xmlns="http://www.w3.org/2000/svg">
<path d="M32.375 39.7876H29.5V34.824C29.4977 32.6307 28.7397 30.528 27.3923 28.9771C26.0449 27.4263 24.218 26.5538 22.3125 26.5512H13.6875C11.782 26.5538 9.95511 27.4263 8.60769 28.9771C7.26027 30.528 6.50228 32.6307 6.5 34.824V39.7876H3.625V34.824C3.62804 31.7533 4.68917 28.8095 6.5756 26.6382C8.46203 24.467 11.0197 23.2456 13.6875 23.2421H22.3125C24.9803 23.2456 27.538 24.467 29.4244 26.6382C31.3108 28.8095 32.372 31.7533 32.375 34.824V39.7876ZM2.1875 0.0783691C1.80625 0.0783691 1.44062 0.252688 1.17103 0.562977C0.901451 0.873265 0.75 1.29411 0.75 1.73292V16.6239H3.625V1.73292C3.625 1.29411 3.47355 0.873265 3.20397 0.562977C2.93438 0.252688 2.56875 0.0783691 2.1875 0.0783691Z" fill="white"/>
</svg>
