<svg width="36" height="27" viewBox="0 0 36 27" fill="none" xmlns="http://www.w3.org/2000/svg">
<path d="M0.75 0.460205V3.76931H7.9375V15.3512C7.9375 18.4229 8.99765 21.3688 10.8847 23.5408C12.7718 25.7128 15.3313 26.933 18 26.933C20.6687 26.933 23.2282 25.7128 25.1153 23.5408C27.0023 21.3688 28.0625 18.4229 28.0625 15.3512V3.76931H35.25V0.460205H0.75ZM10.8125 3.76931H25.1875V8.73297H10.8125V3.76931ZM18 23.6239C16.0938 23.6239 14.2656 22.7523 12.9177 21.2009C11.5698 19.6495 10.8125 17.5452 10.8125 15.3512V12.0421H25.1875V15.3512C25.1875 17.5452 24.4302 19.6495 23.0823 21.2009C21.7344 22.7523 19.9062 23.6239 18 23.6239Z" fill="white"/>
</svg>
